================================================================================
        -=-=-=-=-UPLOUDER BY Anton Angelov a.k.a. OZIRIS811-=-=-=-=-
================================================================================
       -=-=-=-=-R E L E A s E/i N F O-=-=-=-=-
   General
      Complete name : 999-99999999-999.DVDRip.XviD-MoST.avi
      Format : AVI
      Format/Info : Audio Video Interleave
      File size : 1.09 GiB
      Duration : 1h 47mn
      Overall bit rate : 1 457 Kbps
      Writing application : VirtualDubMod 1.5.4.1 (build 2178/release)
      Writing library : VirtualDubMod build 2178/release.
   Video #0
      ID : 0
      Format : MPEG-4 Visual
      Format profile : AdvancedSimple@L5
      Format settings, BVOP : Yes
      Format settings, QPel : No
      Format settings, GMC : No warppoints
      Format settings, Matrix : Custom
      Codec ID : XVID
      Codec ID/Hint : XviD
      Duration : 1h 47mn
      Bit rate : 1 002 Kbps
      Width : 656 pixels
      Height : 352 pixels
      Display aspect ratio : 1.864
      Frame rate : 25.000 fps
      Resolution : 24 bits
      Colorimetry : 4:2:0
      Scan type : Progressive
      Bits/(Pixel*Frame) : 0.174
      Stream size : 767 MiB (69%)
      Writing library : XviD 1.3.0.dev55.
   Audio #1
      ID : 1
      Format : AC-3
      Format/Info : Audio Coding 3
      Codec ID : 2000
      Duration : 1h 47mn
      Bit rate mode : Constant
      Bit rate : 448 Kbps
      Channel(s) : 6 channels
      Channel positions : Front: L C R, Surround: L R, LFE
      Sampling rate : 48.0 KHz
      Video delay : 24ms
      Stream size : 343 MiB (31%)
      Alignment : Split accross interleaves
      Interleave, duration : 96 ms (2.40 video frames)
      Interleave, preload duration : 96 ms.
================================================================================
        -=-=-=-=-UPLOUDER BY Anton Angelov (OZIRIS811)-=-=-=-=-
================================================================================
